<svg viewBox="23 12 86 86" xmlns="http://www.w3.org/2000/svg">
<path d="M89.336 66.7461V55.874L89.3379 55.8105C89.3518 55.1464 89.1271 54.0576 88.6192 53.3232C88.4102 53.0212 88.179 52.8121 87.8926 52.6611C87.6105 52.5125 87.0466 52.2998 86.002 52.2998C84.9572 52.2998 84.3934 52.5125 84.1114 52.6611C83.8251 52.812 83.5947 53.0213 83.3858 53.3232C82.8779 54.0576 82.6532 55.1464 82.667 55.8105L82.669 55.874V66.9023L82.6602 67.0586C82.5271 69.6415 81.6264 73.3296 79.2051 76.5293C76.5826 79.9948 72.3521 82.6073 66.5049 82.6074C60.6171 82.6074 56.3948 79.9395 53.9424 76.1875C51.7996 72.909 51.2603 69.2239 51.3506 66.667V43.2334L51.3614 43.0576C51.3615 43.0539 51.3616 43.0292 51.3604 42.9844C51.3591 42.934 51.3553 42.8656 51.3467 42.7822C51.3292 42.613 51.2952 42.4071 51.2374 42.1826C51.1181 41.7201 50.9294 41.2925 50.6905 40.9531C50.4691 40.6387 50.1976 40.3859 49.8213 40.1924C49.4453 39.999 48.7448 39.752 47.5118 39.752C46.2126 39.752 45.55 39.9971 45.2618 40.1436C44.994 40.2797 44.8345 40.4375 44.6954 40.6475C44.3126 41.2253 44.0772 42.26 44.0772 43.4102V43.4648L43.4698 76.6572C43.4084 80.0042 40.6449 82.6677 37.2979 82.6064C33.9511 82.545 31.2877 79.7823 31.3487 76.4355L31.9551 43.2988C31.9671 41.0983 32.3428 37.3428 34.5889 33.9521C37.1577 30.0745 41.5293 27.6289 47.5118 27.6289C53.6131 27.6289 57.9937 30.2672 60.6036 33.9746C62.8888 37.221 63.5669 40.9149 63.4737 43.498V66.9023L63.4659 67.0586C63.4522 67.3245 63.473 67.786 63.5918 68.3066C63.7094 68.8216 63.8887 69.2469 64.0899 69.5547C64.2734 69.8354 64.4687 70.0145 64.7071 70.1436C64.9425 70.271 65.4683 70.4844 66.5049 70.4844C67.5365 70.4843 68.1581 70.2719 68.5323 70.0801C68.9178 69.8824 69.2457 69.6003 69.5381 69.2139C70.1805 68.3649 70.4913 67.2118 70.5459 66.5166V55.9365C70.5156 53.372 71.1654 49.6804 73.4151 46.4277C75.9332 42.7871 80.1533 40.1769 86.002 40.1768C91.8508 40.1768 96.0718 42.7862 98.5899 46.4268C100.84 49.6795 101.489 53.3719 101.459 55.9365V66.7461C101.459 70.0938 98.7452 72.8076 95.3975 72.8076C92.0499 72.8075 89.336 70.0937 89.336 66.7461Z" fill="#44CE4B"/>
</svg>
